<svg width="471" height="271" viewBox="0 0 471 271" fill="none" xmlns="http://www.w3.org/2000/svg">
<path d="M13.5831 151.004C10.7714 157.73 11.2864 165.447 14.9708 171.801L21.7804 183.545C26.7252 192.072 21.6865 202.876 12.1038 204.293C3.98283 205.494 -1.2022 213.636 1.02227 221.694L5.71113 238.679C7.88181 246.543 13.1426 253.185 20.2516 257.04L32.381 263.616C54.0504 275.364 80.3966 272.876 99.2582 257.301L152.639 213.221C157.979 208.812 164.088 205.452 170.657 203.311C178.982 200.598 187.84 199.91 196.521 201.303L271.266 213.298L346.313 229.729C366.122 234.066 386.727 230.285 403.625 219.214L440.58 195C454.535 185.856 458.684 167.03 449.948 152.485L445.232 144.634C437.742 132.164 442.962 115.979 456.204 110.612C468.124 105.781 473.782 91.9805 468.814 79.8553L466.13 73.3018C461.392 61.7387 450.249 54.1702 437.962 54.1701L415.253 54.1701C398.986 54.1701 383.262 47.8658 371.292 36.545L362.323 28.0615C350.026 16.4309 334.949 8.28121 318.627 4.44247L308.924 2.16041C285.264 -3.40427 260.538 2.82709 242.404 18.9246L236.053 24.5623C232.865 27.3928 230.258 30.8346 228.381 34.6943L207.402 77.8301C203.417 86.0238 191.757 85.6293 188.132 77.1781C186.794 74.0591 186.971 70.5 188.609 67.5677L191.782 61.8878C197.827 51.0685 194.599 37.2545 184.372 30.1745L183.953 29.8843C175.623 24.118 164.706 24.1432 156.533 29.9476L143.658 39.0904C138.68 42.6258 134.439 47.1203 131.173 52.3225L112.138 82.6462C107.096 90.6779 98.1936 95.3301 88.7691 94.8577C78.8102 94.3585 69.9084 88.2253 65.7382 78.9897L63.2508 73.4809C58.2574 62.4222 46.0184 56.7229 34.6099 60.1438C20.0019 64.5241 13.3246 81.576 20.9113 95.1263L23.2909 99.3765C27.5753 107.029 28.1197 116.231 24.7628 124.261L13.5831 151.004Z" fill="#EAFFF3"/>
<path d="M13.5831 151.004C10.7714 157.73 11.2864 165.447 14.9708 171.801L21.7804 183.545C26.7252 192.072 21.6865 202.876 12.1038 204.293C3.98283 205.494 -1.2022 213.636 1.02227 221.694L5.71113 238.679C7.88181 246.543 13.1426 253.185 20.2516 257.04L32.381 263.616C54.0504 275.364 80.3966 272.876 99.2582 257.301L152.639 213.221C157.979 208.812 164.088 205.452 170.657 203.311C178.982 200.598 187.84 199.91 196.521 201.303L271.266 213.298L346.313 229.729C366.122 234.066 386.727 230.285 403.625 219.214L440.58 195C454.535 185.856 458.684 167.03 449.948 152.485L445.232 144.634C437.742 132.164 442.962 115.979 456.204 110.612C468.124 105.781 473.782 91.9805 468.814 79.8553L466.13 73.3018C461.392 61.7387 450.249 54.1702 437.962 54.1701L415.253 54.1701C398.986 54.1701 383.262 47.8658 371.292 36.545L362.323 28.0615C350.026 16.4309 334.949 8.28121 318.627 4.44247L308.924 2.16041C285.264 -3.40427 260.538 2.82709 242.404 18.9246L236.053 24.5623C232.865 27.3928 230.258 30.8346 228.381 34.6943L207.402 77.8301C203.417 86.0238 191.757 85.6293 188.132 77.1781C186.794 74.0591 186.971 70.5 188.609 67.5677L191.782 61.8878C197.827 51.0685 194.599 37.2545 184.372 30.1745L183.953 29.8843C175.623 24.118 164.706 24.1432 156.533 29.9476L143.658 39.0904C138.68 42.6258 134.439 47.1203 131.173 52.3225L112.138 82.6462C107.096 90.6779 98.1936 95.3301 88.7691 94.8577C78.8102 94.3585 69.9084 88.2253 65.7382 78.9897L63.2508 73.4809C58.2574 62.4222 46.0184 56.7229 34.6099 60.1438C20.0019 64.5241 13.3246 81.576 20.9113 95.1263L23.2909 99.3765C27.5753 107.029 28.1197 116.231 24.7628 124.261L13.5831 151.004Z" fill="url(#paint0_linear_16_23)" fill-opacity="0.1"/>
<defs>
<linearGradient id="paint0_linear_16_23" x1="105.612" y1="170.244" x2="198.94" y2="-13.984" gradientUnits="userSpaceOnUse">
<stop stop-color="#398495"/>
<stop offset="1" stop-color="#398495" stop-opacity="0"/>
</linearGradient>
</defs>
</svg>
