<svg width="211" height="197" viewBox="0 0 211 197" fill="none" xmlns="http://www.w3.org/2000/svg">
<path d="M25.7019 48.1796C26.7543 28.6042 40.8124 12.1711 59.9887 8.10046L91.6869 1.37168C101.774 -0.769605 112.294 1.57555 120.517 7.79854L123.063 9.7255C127.585 13.148 133.101 15.0001 138.773 15.0001H167.464C175.062 15.0001 179.757 23.2874 175.851 29.8049C173.371 33.9444 174.281 39.2749 177.995 42.3565L193.374 55.1168C197.631 58.6492 200.934 63.1931 202.981 68.3325L207.421 79.4811C214.933 98.3457 207.677 120.073 190.542 130.969C180.16 137.571 173.117 148.578 171.626 160.791C168.695 184.798 145.781 201.105 122.138 196.009L119.778 195.5L96.772 188.344C86.6367 185.191 75.777 185.231 65.6652 188.458L52.0021 192.819C46.6562 194.525 40.8366 193.871 36.0026 191.021C30.643 187.861 27.0902 182.356 26.419 176.171L22.8879 143.631C22.0733 136.124 18.608 129.154 13.1149 123.974L9.80236 120.85C-3.2042 108.583 -1.56975 87.4425 13.1677 77.3212C20.3479 72.39 24.8297 64.4029 25.2973 55.705L25.7019 48.1796Z" fill="#EAFFF3"/>
<path d="M25.7019 48.1796C26.7543 28.6042 40.8124 12.1711 59.9887 8.10046L91.6869 1.37168C101.774 -0.769605 112.294 1.57555 120.517 7.79854L123.063 9.7255C127.585 13.148 133.101 15.0001 138.773 15.0001H167.464C175.062 15.0001 179.757 23.2874 175.851 29.8049C173.371 33.9444 174.281 39.2749 177.995 42.3565L193.374 55.1168C197.631 58.6492 200.934 63.1931 202.981 68.3325L207.421 79.4811C214.933 98.3457 207.677 120.073 190.542 130.969C180.16 137.571 173.117 148.578 171.626 160.791C168.695 184.798 145.781 201.105 122.138 196.009L119.778 195.5L96.772 188.344C86.6367 185.191 75.777 185.231 65.6652 188.458L52.0021 192.819C46.6562 194.525 40.8366 193.871 36.0026 191.021C30.643 187.861 27.0902 182.356 26.419 176.171L22.8879 143.631C22.0733 136.124 18.608 129.154 13.1149 123.974L9.80236 120.85C-3.2042 108.583 -1.56975 87.4425 13.1677 77.3212C20.3479 72.39 24.8297 64.4029 25.2973 55.705L25.7019 48.1796Z" fill="url(#paint0_linear_6_4)" fill-opacity="0.1"/>
<defs>
<linearGradient id="paint0_linear_6_4" x1="172.028" y1="152.5" x2="-18.4101" y2="21.2425" gradientUnits="userSpaceOnUse">
<stop stop-color="#398495"/>
<stop offset="1" stop-color="#398495" stop-opacity="0"/>
</linearGradient>
</defs>
</svg>
