<svg width="210" height="197" viewBox="0 0 210 197" fill="none" xmlns="http://www.w3.org/2000/svg">
<path d="M25.3096 48.1795C26.3619 28.6042 40.4201 12.1711 59.5964 8.1004L91.2946 1.37162C101.382 -0.769666 111.902 1.57549 120.124 7.79848L122.67 9.72544C127.193 13.148 132.709 15.0001 138.38 15.0001H167.072C174.67 15.0001 179.365 23.2873 175.459 29.8048C172.978 33.9444 173.889 39.2748 177.603 42.3565L192.981 55.1167C197.239 58.6491 200.542 63.193 202.589 68.3324L207.028 79.4811C214.541 98.3457 207.284 120.073 190.15 130.969C179.768 137.571 172.725 148.578 171.234 160.791C168.303 184.798 145.388 201.105 121.746 196.009L119.385 195.5L96.3796 188.344C86.2443 185.191 75.3847 185.231 65.2728 188.458L51.6098 192.819C46.2639 194.525 40.4443 193.871 35.6103 191.021C30.2506 187.861 26.6979 182.356 26.0267 176.171L22.4956 143.631C21.681 136.124 18.2157 129.154 12.7226 123.974L9.41002 120.85C-3.59653 108.583 -1.96208 87.4425 12.7753 77.3211C19.9556 72.3899 24.4374 64.4028 24.905 55.7049L25.3096 48.1795Z" fill="#EAFFF3"/>
<path d="M25.3096 48.1795C26.3619 28.6042 40.4201 12.1711 59.5964 8.1004L91.2946 1.37162C101.382 -0.769666 111.902 1.57549 120.124 7.79848L122.67 9.72544C127.193 13.148 132.709 15.0001 138.38 15.0001H167.072C174.67 15.0001 179.365 23.2873 175.459 29.8048C172.978 33.9444 173.889 39.2748 177.603 42.3565L192.981 55.1167C197.239 58.6491 200.542 63.193 202.589 68.3324L207.028 79.4811C214.541 98.3457 207.284 120.073 190.15 130.969C179.768 137.571 172.725 148.578 171.234 160.791C168.303 184.798 145.388 201.105 121.746 196.009L119.385 195.5L96.3796 188.344C86.2443 185.191 75.3847 185.231 65.2728 188.458L51.6098 192.819C46.2639 194.525 40.4443 193.871 35.6103 191.021C30.2506 187.861 26.6979 182.356 26.0267 176.171L22.4956 143.631C21.681 136.124 18.2157 129.154 12.7226 123.974L9.41002 120.85C-3.59653 108.583 -1.96208 87.4425 12.7753 77.3211C19.9556 72.3899 24.4374 64.4028 24.905 55.7049L25.3096 48.1795Z" fill="url(#paint0_linear_7_14)" fill-opacity="0.1"/>
<defs>
<linearGradient id="paint0_linear_7_14" x1="102.05" y1="-1.99994" x2="102.05" y2="205.5" gradientUnits="userSpaceOnUse">
<stop stop-color="#398495"/>
<stop offset="1" stop-color="#398495" stop-opacity="0"/>
</linearGradient>
</defs>
</svg>
